HIERARCHY
ROOT Hips
{
	OFFSET 0.00000 0.00000 0.00000
	CHANNELS 6 Xposition Yposition Zposition Zrotation Yrotation Xrotation 
	JOINT LHipJoint
	{
		OFFSET 0 0 0
		CHANNELS 3 Zrotation Yrotation Xrotation
		JOINT LeftHip
		{
			OFFSET 1.64577 -1.42384 0.94276
			CHANNELS 3 Zrotation Yrotation Xrotation
			JOINT LeftKnee
			{
				OFFSET 2.11538 -5.81197 0.00000
				CHANNELS 3 Zrotation Yrotation Xrotation
				JOINT LeftAnkle
				{
					OFFSET 2.36541 -6.49893 0.00000
					CHANNELS 3 Zrotation Yrotation Xrotation
					JOINT LeftToe
					{
						OFFSET 0.17759 -0.48793 1.73865
						CHANNELS 3 Zrotation Yrotation Xrotation
						End Site
						{
							OFFSET 0.00000 -0.00000 0.91205
						}
					}
				}
			}
		}
	}
	JOINT RHipJoint
	{
		OFFSET 0 0 0
		CHANNELS 3 Zrotation Yrotation Xrotation
		JOINT RightHip
		{
			OFFSET -1.43750 -1.42384 0.94276
			CHANNELS 3 Zrotation Yrotation Xrotation
			JOINT RightKnee
			{
				OFFSET -2.10480 -5.78291 0.00000
				CHANNELS 3 Zrotation Yrotation Xrotation
				JOINT RightAnkle
				{
					OFFSET -2.34880 -6.45329 0.00000
					CHANNELS 3 Zrotation Yrotation Xrotation
					JOINT RightToe
					{
						OFFSET -0.22842 -0.62757 1.80469
						CHANNELS 3 Zrotation Yrotation Xrotation
						End Site
						{
							OFFSET -0.00000 -0.00000 0.95886
						}
					}
				}
			}
		}
	}
	JOINT lowerback
	{
		OFFSET 0 0 0
		CHANNELS 3 Zrotation Yrotation Xrotation
		JOINT Chest
		{
			OFFSET 0.06217 1.93758 -0.49272
			CHANNELS 3 Zrotation Yrotation Xrotation
			JOINT Chest2
			{
				OFFSET -0.03114 2.03621 -0.05830
				CHANNELS 3 Zrotation Yrotation Xrotation
				JOINT lowerneck
				{
					OFFSET 0 0 0
					CHANNELS 3 Zrotation Yrotation Xrotation
					JOINT Neck
					{
						OFFSET 0.04421 1.41010 0.26562
						CHANNELS 3 Zrotation Yrotation Xrotation
						JOINT Head
						{
							OFFSET -0.13407 1.43847 0.06181
							CHANNELS 3 Zrotation Yrotation Xrotation
							End Site
							{
								OFFSET -0.04980 1.45844 -0.00689
							}
						}
					}
				}
				JOINT LeftCollar
				{
					OFFSET 0 0 0
					CHANNELS 3 Zrotation Yrotation Xrotation
					JOINT LeftShoulder
					{
						OFFSET 2.18382 1.47753 -0.35694
CHANNELS 3 Zrotation Xrotation Yrotation
						JOINT LeftElbow
						{
OFFSET 0 -5.054600 0.000000
CHANNELS 3 Zrotation Xrotation Yrotation
							JOINT LeftWrist
							{
OFFSET 0 -3.390130 0.000000
CHANNELS 3 Zrotation Xrotation Yrotation
								JOINT lhand
								{
									OFFSET 0 0 0
CHANNELS 3 Zrotation Xrotation Yrotation
									JOINT LFingers
									{
OFFSET 0 -0.572420 -0.000000
CHANNELS 3 Zrotation Xrotation Yrotation
										End Site
										{
OFFSET 0 -0.461500 -0.000000
										}
									}
								}
								JOINT LThumb
								{
OFFSET 0 0.000000 0.000000
CHANNELS 3 Zrotation Xrotation Yrotation
									End Site
									{
OFFSET 0 -0.468550 0.468550
									}
								}
							}
						}
					}
				}
				JOINT RightCollar
				{
					OFFSET 0 0 0
					CHANNELS 3 Zrotation Yrotation Xrotation
					JOINT RightShoulder
					{
						OFFSET -2.06033 1.72839 -0.47437
CHANNELS 3 Zrotation Xrotation Yrotation
						JOINT RightElbow
						{
OFFSET 0 -5.070100 0.000000
CHANNELS 3 Zrotation Xrotation Yrotation
							JOINT RightWrist
							{
OFFSET 0 -3.149570 -0.000000
CHANNELS 3 Zrotation Xrotation Yrotation
								JOINT rhand
								{
									OFFSET 0 0 0
CHANNELS 3 Zrotation Xrotation Yrotation
									JOINT RFingers
									{
OFFSET 0 -0.718190 -0.000000
CHANNELS 3 Zrotation Xrotation Yrotation
										End Site
										{
OFFSET 0 -0.579020 -0.000000
										}
									}
								}
								JOINT RThumb
								{
OFFSET 0 0.000000 0.000000
CHANNELS 3 Zrotation Xrotation Yrotation
									End Site
									{
OFFSET 0 -0.587860 0.587860
									}
								}
							}
						}
					}
				}
			}
		}
	}
}
MOTION
Frames: 11
Frame Time: 0.008333333333333333
5.586710 15.166433 1.043779 -140.982307 -85.504346 141.228750 0.000000 0.000000 0.000000 -14.453405 -12.195185 -12.303781 4.288496 12.534752 37.650975 1.517506 5.930908 -26.068814 0.163393 -2.591103 -7.143109 0.000000 0.000000 0.000000 16.818520 18.271201 0.386743 -2.287352 -9.440593 27.183454 -2.195220 -19.667304 -40.470175 -0.497967 4.523902 -12.555601 1.870483 2.392243 9.350712 -0.519278 3.217261 3.383872 -1.919440 1.568576 -1.589395 9.872620 4.928634 -0.642075 -6.475094 5.976877 -14.196745 -3.745916 2.645687 -3.618132 0.000000 0.000000 0.000000 9.441509 -63.883349 -46.415698 97.716467 -59.772343 66.677483 39.921467 30.601077 -12.011088 0.000000 0.000000 0.000000 -7.125000 0.000000 0.000000 11.920563 45.145779 -0.047630 0.000000 0.000000 0.000000 29.628385 -55.214505 77.531183 -89.745978 -59.999727 -59.779990 -41.823870 -55.995657 9.823430 0.000000 0.000000 0.000000 7.125000 0.000000 0.000000 -13.456278 42.658054 -0.792516
5.490845 15.189108 1.212876 -146.054656 -85.129109 146.305290 0.000000 0.000000 0.000000 -15.434709 -11.747455 -11.831611 4.234623 12.466246 37.402043 1.561395 6.085407 -26.478465 0.061471 -1.595093 -4.388048 0.000000 0.000000 0.000000 15.963329 17.493998 -0.089267 -2.358247 -9.575404 27.612514 -2.227358 -18.802000 -39.875886 -0.291837 3.453617 -9.546478 1.501170 2.557948 9.498908 -0.730670 3.397351 3.388623 -1.956487 1.654991 -1.666920 9.500769 4.896319 -1.401313 -5.581754 5.969922 -13.191429 -3.366324 2.637594 -3.240144 0.000000 0.000000 0.000000 10.392229 -61.194091 -45.681572 101.310305 -59.508600 69.778681 38.300100 29.309239 -13.419003 0.000000 0.000000 0.000000 -7.125000 0.000000 0.000000 10.448069 46.618027 -0.419930 0.000000 0.000000 0.000000 26.965112 -53.563637 76.040723 -89.639455 -59.999508 -59.687802 -42.568233 -54.216646 8.946783 0.000000 0.000000 0.000000 7.125000 0.000000 0.000000 -14.005789 41.621648 -1.199512
5.399821 15.213481 1.362647 -143.766115 -84.940247 144.311306 0.000000 0.000000 0.000000 -15.866027 -11.725538 -11.799209 4.237172 12.469499 37.413857 1.564535 6.254272 -26.601739 0.059238 -1.569963 -4.318569 0.000000 0.000000 0.000000 15.531902 16.492822 -0.962200 -2.404812 -9.662706 27.891196 -2.009295 -19.070172 -39.070904 -0.184832 2.769104 -7.636663 1.479331 2.653979 9.305690 -0.792140 3.519569 3.405937 -2.009478 1.718385 -1.534712 9.048334 4.668350 -1.929075 -4.692166 5.719006 -12.311648 -3.270783 2.495181 -3.276007 0.000000 0.000000 0.000000 12.506685 -58.423563 -44.855567 104.312666 -59.208700 72.361944 37.155716 27.325746 -13.340043 0.000000 0.000000 0.000000 -7.125000 0.000000 0.000000 9.326551 46.336389 -0.312911 0.000000 0.000000 0.000000 23.195583 -52.113093 74.133058 -88.799958 -59.994264 -58.960749 -42.166840 -51.781287 8.059697 0.000000 0.000000 0.000000 7.125000 0.000000 0.000000 -13.508771 40.426097 -1.553869
5.316371 15.234732 1.490622 -137.376259 -84.615812 138.037628 0.000000 0.000000 0.000000 -15.775379 -11.733053 -11.708558 4.268200 12.508933 37.557162 1.551106 6.263358 -26.510694 0.059572 -1.570801 -4.321100 0.000000 0.000000 0.000000 15.711614 15.498320 -1.623750 -2.443963 -9.735202 28.123501 -1.628062 -20.138406 -38.187790 -0.194178 2.837698 -7.827193 1.512425 2.639583 9.090497 -0.523560 3.495875 3.705644 -1.728012 1.708287 -1.122499 8.463642 4.613874 -2.801012 -4.400928 5.583179 -11.884158 -3.015537 2.446052 -2.995057 0.000000 0.000000 0.000000 15.792052 -55.282346 -42.802920 107.679819 -58.781347 75.248159 36.422510 22.801704 -13.513944 0.000000 0.000000 0.000000 -7.125000 0.000000 0.000000 8.615116 46.427133 -0.305615 0.000000 0.000000 0.000000 19.713732 -50.689578 72.857085 -87.995790 -59.984617 -58.264401 -40.255932 -50.152564 7.571787 0.000000 0.000000 0.000000 7.125000 0.000000 0.000000 -11.738328 39.594643 -1.586539
5.239197 15.259211 1.594487 -134.875377 -84.408498 135.580376 0.000000 0.000000 0.000000 -15.995719 -11.847233 -11.389681 4.265776 12.505856 37.545868 1.525286 6.620223 -26.541045 0.064849 -1.641656 -4.516302 0.000000 0.000000 0.000000 15.646088 14.310986 -2.241820 -2.513996 -9.863172 28.534908 -1.291754 -21.086261 -37.433967 -0.161070 2.573024 -7.092827 1.282483 2.711302 8.871873 -0.505648 3.556636 4.025614 -1.565435 1.737976 -0.684634 8.298429 4.543142 -3.158531 -4.254719 5.456579 -12.002764 -2.925896 2.375600 -2.986477 0.000000 0.000000 0.000000 19.203639 -51.618109 -40.484922 110.765978 -58.304877 77.881305 35.091493 17.719786 -14.016258 0.000000 0.000000 0.000000 -7.125000 0.000000 0.000000 7.317398 46.811157 -0.323865 0.000000 0.000000 0.000000 16.877667 -49.268315 71.989087 -86.730134 -59.958950 -57.168620 -40.709500 -48.888963 5.826344 0.000000 0.000000 0.000000 7.125000 0.000000 0.000000 -11.911191 37.403624 -2.261860
5.176469 15.281353 1.678859 -131.015848 -83.768631 131.884125 0.000000 0.000000 0.000000 -15.611151 -12.124661 -10.950300 4.195618 12.416178 37.220655 1.545949 6.823503 -26.815216 0.055286 -1.517400 -4.173550 0.000000 0.000000 0.000000 16.234481 13.559288 -3.092551 -2.650462 -10.106393 29.322072 -1.225584 -21.076694 -37.083566 -0.080355 1.828314 -5.031396 1.615117 2.863407 9.081252 -0.574774 3.787096 3.944780 -1.856210 1.855067 -0.847427 8.021608 4.269870 -3.626320 -3.521785 5.113404 -11.614939 -2.599515 2.200635 -2.814436 0.000000 0.000000 0.000000 22.128900 -47.491725 -38.291795 112.867592 -57.928804 79.666167 32.406772 16.168409 -16.631076 0.000000 0.000000 0.000000 -7.125000 0.000000 0.000000 4.547706 49.409561 -0.494875 0.000000 0.000000 0.000000 14.514527 -47.429064 71.554534 -84.421285 -59.881966 -55.170560 -39.120481 -46.145506 3.267996 0.000000 0.000000 0.000000 7.125000 0.000000 0.000000 -10.260680 34.050956 -2.793309
5.107308 15.293579 1.757106 -130.641351 -84.046501 131.719314 0.000000 0.000000 0.000000 -16.313904 -12.636444 -10.398421 4.091450 12.281025 36.733640 1.563783 7.173826 -27.162311 0.054345 -1.503702 -4.136022 0.000000 0.000000 0.000000 15.603455 12.002231 -4.646768 -2.855412 -10.456862 30.469685 -1.001247 -21.206805 -36.037137 -0.057504 1.538864 -4.233034 1.213671 3.011798 9.030202 -0.951222 3.949890 3.752558 -2.038854 1.934862 -1.012260 8.006744 3.777340 -3.531540 -2.776897 4.529976 -11.310420 -2.341099 1.900400 -2.780527 0.000000 0.000000 0.000000 24.633722 -43.303566 -36.608033 114.567158 -57.591056 81.103604 29.809034 13.372314 -19.013510 0.000000 0.000000 0.000000 -7.125000 0.000000 0.000000 1.613236 51.631449 -0.259781 0.000000 0.000000 0.000000 11.907141 -45.916808 71.574440 -81.439953 -59.719672 -52.593833 -35.759098 -43.671547 0.497821 0.000000 0.000000 0.000000 7.125000 0.000000 0.000000 -7.281440 30.553429 -2.577577
5.058613 15.305404 1.818235 -128.055890 -84.045617 129.113479 0.000000 0.000000 0.000000 -16.568247 -13.221734 -9.748553 4.019102 12.185765 36.392414 1.556028 7.538501 -27.340525 0.050092 -1.443875 -3.971122 0.000000 0.000000 0.000000 15.649645 10.414761 -6.168656 -3.128027 -10.898412 31.939100 -0.778307 -21.048183 -34.620951 -0.035923 1.222084 -3.360066 1.140452 3.179191 8.511089 -1.166742 4.142454 4.233044 -2.189778 2.038861 -0.210647 8.059871 3.351289 -3.874788 -2.370920 3.947687 -11.411921 -2.206896 1.586879 -2.795390 0.000000 0.000000 0.000000 27.486536 -40.047466 -34.404235 115.828297 -57.321983 82.166773 27.591571 6.331609 -18.863553 0.000000 0.000000 0.000000 -7.125000 0.000000 0.000000 -0.617268 51.062216 0.088257 0.000000 0.000000 0.000000 9.793115 -45.991152 72.985341 -78.344522 -59.479212 -49.923791 -33.508320 -40.901191 -1.615364 0.000000 0.000000 0.000000 7.125000 0.000000 0.000000 -5.356534 28.031425 -2.214501
5.013545 15.308533 1.846958 -123.267436 -83.716884 124.136092 0.000000 0.000000 0.000000 -16.193816 -13.501553 -9.123781 3.989258 12.146082 36.250766 1.551597 7.612339 -27.357374 0.069726 -1.696273 -4.667189 0.000000 0.000000 0.000000 16.571871 8.903980 -7.471715 -3.440481 -11.375005 33.556594 -0.478251 -20.627514 -32.341603 -0.164399 2.519269 -6.947927 0.888646 3.389926 9.395990 -1.020127 4.414530 3.839005 -1.992233 2.159546 -1.122350 7.760626 2.870005 -4.114211 -1.809559 3.341769 -10.583776 -1.943124 1.312509 -2.515456 0.000000 0.000000 0.000000 29.546178 -36.158382 -33.264518 116.387629 -57.198117 82.637359 25.277328 1.347624 -18.728789 0.000000 0.000000 0.000000 -7.125000 0.000000 0.000000 -2.912075 50.510772 0.394924 0.000000 0.000000 0.000000 7.582897 -44.979912 74.465331 -76.301157 -59.277579 -48.165320 -31.459556 -38.270169 -3.131555 0.000000 0.000000 0.000000 7.125000 0.000000 0.000000 -3.688559 26.308834 -1.670779
4.967759 15.308376 1.870647 -118.458533 -83.922766 119.419679 0.000000 0.000000 0.000000 -16.234280 -13.886845 -8.808004 3.950368 12.094047 36.065609 1.517147 7.678098 -27.157129 0.120796 -2.235631 -6.157398 0.000000 0.000000 0.000000 16.993336 7.118075 -9.133650 -3.716041 -11.772242 34.931454 -0.466250 -19.266382 -30.627619 -0.581932 4.868637 -13.537449 0.562786 3.437745 9.125865 -1.167888 4.445736 3.926770 -1.944594 2.174961 -0.895680 7.347603 2.463784 -4.401402 -1.122013 2.828058 -10.325188 -1.632328 1.061612 -2.414626 0.000000 0.000000 0.000000 32.387030 -32.811354 -31.592760 116.514744 -57.169316 82.744212 25.292060 -3.014277 -18.457102 0.000000 0.000000 0.000000 -7.125000 0.000000 0.000000 -2.836986 50.220145 0.365272 0.000000 0.000000 0.000000 6.323621 -45.320992 76.520945 -74.074971 -59.018093 -46.254134 -28.582816 -36.605547 -4.235174 0.000000 0.000000 0.000000 7.125000 0.000000 0.000000 -1.459678 25.161273 -0.696049
4.909931 15.318470 1.885681 -112.909015 -84.506862 113.811728 0.000000 0.000000 0.000000 -16.763267 -14.510310 -8.167462 3.871218 11.987006 35.685898 1.463296 7.985837 -26.977353 0.148472 -2.470254 -6.807783 0.000000 0.000000 0.000000 17.155795 5.771624 -10.255351 -3.875623 -11.993009 35.707363 -0.683877 -17.893391 -30.478959 -0.800213 5.709155 -15.942970 0.086108 3.453630 8.842743 -1.488334 4.421582 4.001030 -1.985534 2.161012 -0.675319 7.066243 2.020768 -4.898243 -0.402814 2.245856 -9.645955 -1.330645 0.786865 -2.135335 0.000000 0.000000 0.000000 35.363417 -29.211538 -30.315416 115.906324 -57.304662 82.232402 26.297983 -7.910752 -18.171406 0.000000 0.000000 0.000000 -7.125000 0.000000 0.000000 -1.780786 50.079178 0.226742 0.000000 0.000000 0.000000 5.674536 -45.916371 78.782361 -71.463504 -58.659851 -44.019253 -25.903461 -35.869610 -5.369390 0.000000 0.000000 0.000000 7.125000 0.000000 0.000000 0.585713 24.015005 0.297245
